<svg xmlns="http://www.w3.org/2000/svg" viewBox="0 0 297 297" style="" xml:space="preserve"><path d="M42.352 106.148C18.999 106.148 0 125.147 0 148.5c0 23.353 18.999 42.352 42.352 42.352 23.353 0 42.352-18.999 42.352-42.352 0-23.353-18.999-42.352-42.352-42.352zM148.5 106.148c-23.353 0-42.352 18.999-42.352 42.352 0 23.353 18.999 42.352 42.352 42.352s42.352-18.999 42.352-42.352c0-23.353-18.999-42.352-42.352-42.352zM254.648 106.148c-23.353 0-42.352 18.999-42.352 42.352 0 23.353 18.999 42.352 42.352 42.352S297 171.853 297 148.5c0-23.353-18.999-42.352-42.352-42.352z"/></svg>